<?xml version="1.0" encoding="UTF-8"?>
<svg xmlns="http://www.w3.org/2000/svg" version="1.1" xmlns:xlink="http://www.w3.org/1999/xlink" viewBox="0 0 834.25 834.25">
  <!-- Generator: Adobe Illustrator 29.2.0, SVG Export Plug-In . SVG Version: 2.1.0 Build 108)  -->
  <defs>
    <style>
      .st0 {
        fill: url(#Degradado_sin_nombre_19);
        stroke: url(#Degradado_sin_nombre_20);
        stroke-miterlimit: 10;
        stroke-width: 1.18px;
      }

      .st1 {
        fill: url(#Degradado_sin_nombre_29);
      }

      .st1, .st2, .st3 {
        isolation: isolate;
      }

      .st1, .st3 {
        mix-blend-mode: hard-light;
      }

      .st4 {
        fill: url(#Degradado_sin_nombre_9);
        stroke: url(#Degradado_sin_nombre_10);
      }

      .st4, .st5, .st6, .st7, .st8, .st9, .st10, .st11, .st12, .st13 {
        stroke-miterlimit: 10;
        stroke-width: 1.18px;
      }

      .st14 {
        fill: url(#Degradado_sin_nombre_26);
      }

      .st5 {
        fill: url(#Degradado_sin_nombre_3);
        stroke: #b0782e;
      }

      .st15 {
        fill: #000002;
      }

      .st16 {
        fill: url(#Degradado_sin_nombre_25);
      }

      .st17 {
        fill: url(#Degradado_sin_nombre_4);
      }

      .st6 {
        fill: url(#Degradado_sin_nombre_7);
        stroke: url(#Degradado_sin_nombre_8);
      }

      .st18 {
        fill: url(#Degradado_sin_nombre_2);
      }

      .st19 {
        fill: url(#Degradado_sin_nombre_32);
      }

      .st3 {
        fill: url(#Degradado_sin_nombre_28);
      }

      .st7 {
        fill: url(#Degradado_sin_nombre_21);
        stroke: url(#Degradado_sin_nombre_22);
      }

      .st8 {
        fill: url(#Degradado_sin_nombre_17);
        stroke: url(#Degradado_sin_nombre_18);
      }

      .st20 {
        fill: url(#Degradado_sin_nombre);
      }

      .st9 {
        fill: url(#Degradado_sin_nombre_13);
        stroke: url(#Degradado_sin_nombre_14);
      }

      .st10 {
        fill: url(#Degradado_sin_nombre_15);
        stroke: url(#Degradado_sin_nombre_16);
      }

      .st21 {
        fill: url(#Degradado_sin_nombre_27);
      }

      .st11 {
        fill: url(#Degradado_sin_nombre_11);
        stroke: url(#Degradado_sin_nombre_12);
      }

      .st12 {
        fill: url(#Degradado_sin_nombre_23);
        stroke: url(#Degradado_sin_nombre_24);
      }

      .st13 {
        fill: url(#Degradado_sin_nombre_5);
        stroke: url(#Degradado_sin_nombre_6);
      }
    </style>
    <radialGradient id="Degradado_sin_nombre_32" data-name="Degradado sin nombre 32" cx="417.13" cy="417.13" fx="417.13" fy="417.13" r="418.28" gradientUnits="userSpaceOnUse">
      <stop offset="0" stop-color="#fff"/>
      <stop offset=".95" stop-color="#000"/>
    </radialGradient>
    <linearGradient id="Degradado_sin_nombre" data-name="Degradado sin nombre" x1="206.99" y1="433.37" x2="635.33" y2="433.37" gradientTransform="translate(0 835.3) scale(1 -1)" gradientUnits="userSpaceOnUse">
      <stop offset="0" stop-color="#000"/>
      <stop offset=".55" stop-color="#4f4f57"/>
      <stop offset="1" stop-color="#000"/>
    </linearGradient>
    <linearGradient id="Degradado_sin_nombre_2" data-name="Degradado sin nombre 2" x1="226.61" y1="704.64" x2="598.45" y2="704.64" gradientTransform="translate(0 835.3) scale(1 -1)" gradientUnits="userSpaceOnUse">
      <stop offset="0" stop-color="#f4cd68"/>
      <stop offset=".13" stop-color="#daa74c"/>
      <stop offset=".24" stop-color="#985d0f"/>
      <stop offset=".34" stop-color="#dc9835"/>
      <stop offset=".44" stop-color="#f6de56"/>
      <stop offset=".56" stop-color="#db962f"/>
      <stop offset=".68" stop-color="#884b0a"/>
      <stop offset=".8" stop-color="#975405"/>
      <stop offset=".9" stop-color="#fcce5e"/>
      <stop offset="1" stop-color="#f9eb7e"/>
    </linearGradient>
    <linearGradient id="Degradado_sin_nombre_3" data-name="Degradado sin nombre 3" x1="226.61" y1="132.35" x2="606.98" y2="132.35" gradientTransform="translate(0 835.3) scale(1 -1)" gradientUnits="userSpaceOnUse">
      <stop offset="0" stop-color="#f4cd68"/>
      <stop offset=".13" stop-color="#daa74c"/>
      <stop offset=".24" stop-color="#985d0f"/>
      <stop offset=".34" stop-color="#dc9835"/>
      <stop offset=".44" stop-color="#f6de56"/>
      <stop offset=".56" stop-color="#db962f"/>
      <stop offset=".68" stop-color="#884b0a"/>
      <stop offset=".8" stop-color="#975405"/>
      <stop offset=".9" stop-color="#fcce5e"/>
      <stop offset="1" stop-color="#f9eb7e"/>
    </linearGradient>
    <linearGradient id="Degradado_sin_nombre_4" data-name="Degradado sin nombre 4" x1="426.53" y1="724.46" x2="405.94" y2="56.65" gradientTransform="translate(0 835.3) scale(1 -1)" gradientUnits="userSpaceOnUse">
      <stop offset="0" stop-color="#56555b"/>
      <stop offset=".17" stop-color="#c4c4c4"/>
      <stop offset=".34" stop-color="#6b6b6d"/>
      <stop offset=".5" stop-color="#f1f1f1"/>
      <stop offset=".66" stop-color="#6b6b6d"/>
      <stop offset=".84" stop-color="#c4c4c4"/>
      <stop offset="1" stop-color="#56555b"/>
    </linearGradient>
    <linearGradient id="Degradado_sin_nombre_5" data-name="Degradado sin nombre 5" x1="217.46" y1="409.18" x2="619.14" y2="409.18" gradientTransform="translate(0 835.3) scale(1 -1)" gradientUnits="userSpaceOnUse">
      <stop offset="0" stop-color="#56555b"/>
      <stop offset=".17" stop-color="#c4c4c4"/>
      <stop offset=".34" stop-color="#6b6b6d"/>
      <stop offset=".5" stop-color="#c4c4c4"/>
      <stop offset=".66" stop-color="#6b6b6d"/>
      <stop offset=".84" stop-color="#c4c4c4"/>
      <stop offset="1" stop-color="#56555b"/>
    </linearGradient>
    <linearGradient id="Degradado_sin_nombre_6" data-name="Degradado sin nombre 6" x1="216.88" y1="409.18" x2="620.68" y2="409.18" gradientTransform="translate(0 835.3) scale(1 -1)" gradientUnits="userSpaceOnUse">
      <stop offset="0" stop-color="#fff"/>
      <stop offset="1" stop-color="#50504f"/>
    </linearGradient>
    <linearGradient id="Degradado_sin_nombre_7" data-name="Degradado sin nombre 7" x1="308.12" y1="629.18" x2="304.85" y2="400.55" gradientTransform="translate(0 835.3) scale(1 -1)" gradientUnits="userSpaceOnUse">
      <stop offset="0" stop-color="#56555b"/>
      <stop offset=".17" stop-color="#c4c4c4"/>
      <stop offset=".34" stop-color="#6b6b6d"/>
      <stop offset=".5" stop-color="#f1f1f1"/>
      <stop offset=".66" stop-color="#6b6b6d"/>
      <stop offset=".84" stop-color="#c4c4c4"/>
      <stop offset="1" stop-color="#56555b"/>
    </linearGradient>
    <linearGradient id="Degradado_sin_nombre_8" data-name="Degradado sin nombre 8" x1="242.57" y1="507.86" x2="370.2" y2="507.86" gradientTransform="translate(0 835.3) scale(1 -1)" gradientUnits="userSpaceOnUse">
      <stop offset="0" stop-color="#fff"/>
      <stop offset="1" stop-color="#50504f"/>
    </linearGradient>
    <linearGradient id="Degradado_sin_nombre_9" data-name="Degradado sin nombre 9" x1="556.63" y1="625.7" x2="553.42" y2="397.02" gradientTransform="translate(0 835.3) scale(1 -1)" gradientUnits="userSpaceOnUse">
      <stop offset="0" stop-color="#56555b"/>
      <stop offset=".17" stop-color="#c4c4c4"/>
      <stop offset=".34" stop-color="#6b6b6d"/>
      <stop offset=".5" stop-color="#f1f1f1"/>
      <stop offset=".66" stop-color="#6b6b6d"/>
      <stop offset=".84" stop-color="#c4c4c4"/>
      <stop offset="1" stop-color="#56555b"/>
    </linearGradient>
    <linearGradient id="Degradado_sin_nombre_10" data-name="Degradado sin nombre 10" x1="500.48" y1="507.86" x2="611.65" y2="507.86" gradientTransform="translate(0 835.3) scale(1 -1)" gradientUnits="userSpaceOnUse">
      <stop offset="0" stop-color="#fff"/>
      <stop offset="1" stop-color="#50504f"/>
    </linearGradient>
    <linearGradient id="Degradado_sin_nombre_11" data-name="Degradado sin nombre 11" x1="437.64" y1="627.34" x2="434.42" y2="398.71" gradientTransform="translate(0 835.3) scale(1 -1)" gradientUnits="userSpaceOnUse">
      <stop offset="0" stop-color="#56555b"/>
      <stop offset=".17" stop-color="#c4c4c4"/>
      <stop offset=".34" stop-color="#6b6b6d"/>
      <stop offset=".5" stop-color="#f1f1f1"/>
      <stop offset=".66" stop-color="#6b6b6d"/>
      <stop offset=".84" stop-color="#c4c4c4"/>
      <stop offset="1" stop-color="#56555b"/>
    </linearGradient>
    <linearGradient id="Degradado_sin_nombre_12" data-name="Degradado sin nombre 12" x1="375.72" y1="508.3" x2="497.98" y2="508.3" gradientTransform="translate(0 835.3) scale(1 -1)" gradientUnits="userSpaceOnUse">
      <stop offset="0" stop-color="#fff"/>
      <stop offset="1" stop-color="#50504f"/>
    </linearGradient>
    <linearGradient id="Degradado_sin_nombre_13" data-name="Degradado sin nombre 13" x1="283.75" y1="370.51" x2="283.75" y2="298.31" gradientTransform="translate(0 835.3) scale(1 -1)" gradientUnits="userSpaceOnUse">
      <stop offset="0" stop-color="#56555b"/>
      <stop offset=".17" stop-color="#c4c4c4"/>
      <stop offset=".34" stop-color="#6b6b6d"/>
      <stop offset=".5" stop-color="#f1f1f1"/>
      <stop offset=".66" stop-color="#6b6b6d"/>
      <stop offset=".84" stop-color="#c4c4c4"/>
      <stop offset="1" stop-color="#56555b"/>
    </linearGradient>
    <linearGradient id="Degradado_sin_nombre_14" data-name="Degradado sin nombre 14" x1="256.93" y1="340.62" x2="310.58" y2="340.62" gradientTransform="translate(0 835.3) scale(1 -1)" gradientUnits="userSpaceOnUse">
      <stop offset="0" stop-color="#fff"/>
      <stop offset="1" stop-color="#50504f"/>
    </linearGradient>
    <linearGradient id="Degradado_sin_nombre_15" data-name="Degradado sin nombre 15" x1="338.55" y1="370.51" x2="338.55" y2="298.31" gradientTransform="translate(0 835.3) scale(1 -1)" gradientUnits="userSpaceOnUse">
      <stop offset="0" stop-color="#56555b"/>
      <stop offset=".17" stop-color="#c4c4c4"/>
      <stop offset=".34" stop-color="#6b6b6d"/>
      <stop offset=".5" stop-color="#f1f1f1"/>
      <stop offset=".66" stop-color="#6b6b6d"/>
      <stop offset=".84" stop-color="#c4c4c4"/>
      <stop offset="1" stop-color="#56555b"/>
    </linearGradient>
    <linearGradient id="Degradado_sin_nombre_16" data-name="Degradado sin nombre 16" x1="314.15" y1="340.57" x2="362.99" y2="340.57" gradientTransform="translate(0 835.3) scale(1 -1)" gradientUnits="userSpaceOnUse">
      <stop offset="0" stop-color="#fff"/>
      <stop offset="1" stop-color="#50504f"/>
    </linearGradient>
    <linearGradient id="Degradado_sin_nombre_17" data-name="Degradado sin nombre 17" x1="391.94" y1="370.51" x2="391.94" y2="298.31" gradientTransform="translate(0 835.3) scale(1 -1)" gradientUnits="userSpaceOnUse">
      <stop offset="0" stop-color="#56555b"/>
      <stop offset=".17" stop-color="#c4c4c4"/>
      <stop offset=".34" stop-color="#6b6b6d"/>
      <stop offset=".5" stop-color="#f1f1f1"/>
      <stop offset=".66" stop-color="#6b6b6d"/>
      <stop offset=".84" stop-color="#c4c4c4"/>
      <stop offset="1" stop-color="#56555b"/>
    </linearGradient>
    <linearGradient id="Degradado_sin_nombre_18" data-name="Degradado sin nombre 18" x1="367.39" y1="340.51" x2="416.54" y2="340.51" gradientTransform="translate(0 835.3) scale(1 -1)" gradientUnits="userSpaceOnUse">
      <stop offset="0" stop-color="#fff"/>
      <stop offset="1" stop-color="#50504f"/>
    </linearGradient>
    <linearGradient id="Degradado_sin_nombre_19" data-name="Degradado sin nombre 19" x1="434.99" y1="370.5" x2="434.99" y2="298.31" gradientTransform="translate(0 835.3) scale(1 -1)" gradientUnits="userSpaceOnUse">
      <stop offset="0" stop-color="#56555b"/>
      <stop offset=".17" stop-color="#c4c4c4"/>
      <stop offset=".34" stop-color="#6b6b6d"/>
      <stop offset=".5" stop-color="#f1f1f1"/>
      <stop offset=".66" stop-color="#6b6b6d"/>
      <stop offset=".84" stop-color="#c4c4c4"/>
      <stop offset="1" stop-color="#56555b"/>
    </linearGradient>
    <linearGradient id="Degradado_sin_nombre_20" data-name="Degradado sin nombre 20" x1="424.64" y1="337.11" x2="445.38" y2="337.11" gradientTransform="translate(0 835.3) scale(1 -1)" gradientUnits="userSpaceOnUse">
      <stop offset="0" stop-color="#fff"/>
      <stop offset="1" stop-color="#50504f"/>
    </linearGradient>
    <linearGradient id="Degradado_sin_nombre_21" data-name="Degradado sin nombre 21" x1="478.71" y1="370.51" x2="478.71" y2="298.31" gradientTransform="translate(0 835.3) scale(1 -1)" gradientUnits="userSpaceOnUse">
      <stop offset="0" stop-color="#56555b"/>
      <stop offset=".17" stop-color="#c4c4c4"/>
      <stop offset=".34" stop-color="#6b6b6d"/>
      <stop offset=".5" stop-color="#f1f1f1"/>
      <stop offset=".66" stop-color="#6b6b6d"/>
      <stop offset=".84" stop-color="#c4c4c4"/>
      <stop offset="1" stop-color="#56555b"/>
    </linearGradient>
    <linearGradient id="Degradado_sin_nombre_22" data-name="Degradado sin nombre 22" x1="446.92" y1="340.57" x2="510.52" y2="340.57" gradientTransform="translate(0 835.3) scale(1 -1)" gradientUnits="userSpaceOnUse">
      <stop offset="0" stop-color="#fff"/>
      <stop offset="1" stop-color="#50504f"/>
    </linearGradient>
    <linearGradient id="Degradado_sin_nombre_23" data-name="Degradado sin nombre 23" x1="547.02" y1="370.51" x2="547.02" y2="298.31" gradientTransform="translate(0 835.3) scale(1 -1)" gradientUnits="userSpaceOnUse">
      <stop offset="0" stop-color="#56555b"/>
      <stop offset=".17" stop-color="#c4c4c4"/>
      <stop offset=".34" stop-color="#6b6b6d"/>
      <stop offset=".5" stop-color="#f1f1f1"/>
      <stop offset=".66" stop-color="#6b6b6d"/>
      <stop offset=".84" stop-color="#c4c4c4"/>
      <stop offset="1" stop-color="#56555b"/>
    </linearGradient>
    <linearGradient id="Degradado_sin_nombre_24" data-name="Degradado sin nombre 24" x1="515.96" y1="340.41" x2="578.09" y2="340.41" gradientTransform="translate(0 835.3) scale(1 -1)" gradientUnits="userSpaceOnUse">
      <stop offset="0" stop-color="#fff"/>
      <stop offset="1" stop-color="#50504f"/>
    </linearGradient>
    <linearGradient id="Degradado_sin_nombre_25" data-name="Degradado sin nombre 25" x1="200.81" y1="241.17" x2="634.31" y2="241.17" gradientTransform="translate(0 835.3) scale(1 -1)" gradientUnits="userSpaceOnUse">
      <stop offset="0" stop-color="#640029"/>
      <stop offset=".05" stop-color="#68012f"/>
      <stop offset=".12" stop-color="#750640"/>
      <stop offset=".19" stop-color="#8a0d5c"/>
      <stop offset=".28" stop-color="#a71884"/>
      <stop offset=".37" stop-color="#cc25b7"/>
      <stop offset=".46" stop-color="#f936f4"/>
      <stop offset=".47" stop-color="#fc37f8"/>
      <stop offset=".48" stop-color="#f935f3"/>
      <stop offset=".57" stop-color="#dc25c4"/>
      <stop offset=".66" stop-color="#c5189e"/>
      <stop offset=".75" stop-color="#b30e80"/>
      <stop offset=".84" stop-color="#a6076b"/>
      <stop offset=".92" stop-color="#9e035e"/>
      <stop offset="1" stop-color="#9c025a"/>
    </linearGradient>
    <linearGradient id="Degradado_sin_nombre_26" data-name="Degradado sin nombre 26" x1="225.92" y1="613.7" x2="225.92" y2="590.25" gradientTransform="translate(0 835.3) scale(1 -1)" gradientUnits="userSpaceOnUse">
      <stop offset="0" stop-color="#6ac2d8"/>
      <stop offset=".47" stop-color="#6ac2d8"/>
      <stop offset="1" stop-color="#326ea0"/>
    </linearGradient>
    <linearGradient id="Degradado_sin_nombre_27" data-name="Degradado sin nombre 27" x1="582.4" y1="283.4" x2="659.04" y2="283.4" gradientTransform="translate(0 835.3) scale(1 -1)" gradientUnits="userSpaceOnUse">
      <stop offset=".47" stop-color="#fc37f8"/>
      <stop offset=".48" stop-color="#f935f3"/>
      <stop offset=".57" stop-color="#dc25c4"/>
      <stop offset=".66" stop-color="#c5189e"/>
      <stop offset=".75" stop-color="#b30e80"/>
      <stop offset=".84" stop-color="#a6076b"/>
      <stop offset=".92" stop-color="#9e035e"/>
      <stop offset="1" stop-color="#9c025a"/>
    </linearGradient>
    <linearGradient id="Degradado_sin_nombre_28" data-name="Degradado sin nombre 28" x1="416.79" y1="190.67" x2="416.79" y2="43.63" gradientTransform="translate(0 835.3) scale(1 -1)" gradientUnits="userSpaceOnUse">
      <stop offset="0" stop-color="#000"/>
      <stop offset=".25" stop-color="#4e3315"/>
      <stop offset=".48" stop-color="#c78d3b"/>
      <stop offset="1" stop-color="#1d1d1b"/>
    </linearGradient>
    <linearGradient id="Degradado_sin_nombre_29" data-name="Degradado sin nombre 29" x1="226.61" y1="704.64" x2="598.45" y2="704.64" gradientTransform="translate(0 835.3) scale(1 -1)" gradientUnits="userSpaceOnUse">
      <stop offset="0" stop-color="#f4cd68"/>
      <stop offset=".13" stop-color="#daa74c"/>
      <stop offset=".24" stop-color="#985d0f"/>
      <stop offset=".34" stop-color="#dc9835"/>
      <stop offset=".44" stop-color="#f6de56"/>
      <stop offset=".56" stop-color="#db962f"/>
      <stop offset=".68" stop-color="#884b0a"/>
      <stop offset=".8" stop-color="#975405"/>
      <stop offset=".9" stop-color="#fcce5e"/>
      <stop offset="1" stop-color="#f9eb7e"/>
    </linearGradient>
  </defs>
  <g class="st2">
    <g id="Capa_1">
      <rect x="-1.15" y="-1.15" width="836.56" height="836.56"/>
      <rect class="st19" x="-1.15" y="-1.15" width="836.56" height="836.56"/>
      <g>
        <path class="st15" d="M651.43,591.5c0,14.82-12.06,26.92-26.92,26.92H210.97c-14.82,0-26.87-12.06-26.92-26.82l-1.18-352.73c0-14.77,11.9-26.87,26.72-27.03l414.96-3.27c14.82,0,26.92,12.06,26.92,26.92v356h-.05Z"/>
        <path class="st20" d="M639.73,461.37v-225.82c0-8.38-6.8-15.23-15.23-15.23l-349.92,2.76c-4.39,0-8.63,1.74-11.85,4.7l-62.48,58.19c-3.58,3.32-5.62,8.02-5.57,12.93.15,46.8.41,113.98.56,172.18l-.15,24.78v72.45c0,8.38,6.8,15.23,15.17,15.23l349.41-2.76c4.39,0,8.58-1.74,11.8-4.7l62.38-58.19c3.58-3.32,5.62-8.02,5.57-12.93,0-10.22-.05-21.41-.1-33.26l.31-10.27.1-.05Z"/>
        <path class="st18" d="M226.61,193.04v-49.92h108.26v-74.85h54.97v75.15h41.49v-75.15h54.1v77.66s74.85-10.01,113.01,44.65c0,0-371.84,2.45-371.84,2.45Z"/>
        <path class="st5" d="M226.61,641.26v57.07h108.26v67.7h54.97v-68h41.49v68h54.1v-70.51s83.43-.97,121.54-55.64c0,0-380.37,1.38-380.37,1.38Z"/>
        <path class="st17" d="M624.2,194.57l-414.7,3.27c-22.53.15-40.67,18.55-40.62,41.08l1.18,352.73c.05,22.53,18.39,40.77,40.92,40.77h413.53c22.58,0,40.92-18.34,40.92-40.92V235.5c0-22.74-18.55-41.13-41.23-40.92ZM651.43,591.5c0,14.82-12.06,26.92-26.92,26.92H210.97c-14.82,0-26.87-12.06-26.92-26.82l-1.18-352.73c0-14.77,11.9-26.87,26.72-27.03l414.96-3.27c14.82,0,26.92,12.06,26.92,26.92v356h-.05Z"/>
        <polygon class="st13" points="599.83 434.75 217.46 434.75 217.46 417.48 619.14 417.48 599.83 434.75"/>
        <g>
          <polygon class="st6" points="243.16 260.84 288.48 260.84 335.18 329.5 335.18 261.71 369.61 261.71 369.61 394.03 333.49 394.03 276.93 310.91 276.93 394.03 243.16 394.03 243.16 260.84"/>
          <polygon class="st4" points="501.07 260.84 501.07 394.03 536.17 394.03 536.17 341.41 594.05 341.41 597.27 316.53 534.89 316.53 534.89 292.72 597.27 292.72 610.76 260.84 501.07 260.84"/>
          <path class="st11" d="M491.41,314.28h-40.67l-11.24,27.69h22.12v10.88c0,3.42-2.76,6.18-6.18,6.18h-37.45c-3.99,0-7.2-3.22-7.2-7.2v-52.57c0-3.12,2.55-5.67,5.67-5.67h65.86l14.77-33.62h-89.87c-17.06,0-30.91,13.85-30.91,30.91v67.95c0,19.47,15.79,35.2,35.2,35.2h69.48c5.88,0,10.68-4.75,10.68-10.63l-.26-69.13h0Z"/>
        </g>
        <g>
          <path class="st9" d="M300.43,494.73v-1.12c4.55,0,8.23-3.68,8.23-8.23v-2.09c0-6.49-5.26-11.8-11.8-11.8h-39.34v46.39h42.15c5.67,0,10.32-4.6,10.32-10.32v-3.32c0-5.26-4.29-9.55-9.55-9.55v.05ZM269.52,481.5h23.25s3.58,1.02,3.47,4.8c-.1,3.78-3.78,4.8-3.78,4.8h-22.94v-9.61ZM293.89,508.88h-24.37v-9.55h24.73s3.58,1.02,3.47,4.8c-.1,3.78-3.78,4.8-3.78,4.8l-.05-.05Z"/>
          <polygon class="st10" points="314.74 482.47 332.01 482.47 332.01 517.93 345.24 517.93 345.24 482.27 362.36 482.27 362.36 471.95 314.74 471.54 314.74 482.47"/>
          <path class="st8" d="M412.07,471.64h-27.9c-8.94,0-16.2,7.25-16.2,16.2v13.9c0,8.94,7.25,16.2,16.2,16.2h27.9c2.09,0,3.83-1.74,3.83-3.83v-8.69s-5.77,3.58-11.24,3.58h-17.93c-3.07,0-5.52-2.45-5.52-5.52v-16.2c0-3.07,2.45-5.52,5.52-5.52h18.03s9.76.61,11.14,2.96v-9.2c0-2.09-1.74-3.83-3.83-3.83v-.05Z"/>
          <circle class="st0" cx="434.99" cy="498.19" r="9.76"/>
          <path class="st7" d="M469.08,471.54l-21.25,46.39h13.79l4.65-9.25h25.24l4.19,9.25h13.9l-21.36-46.39h-19.16ZM470.06,498.77l8.69-17.68,7.61,17.68s-16.3,0-16.3,0Z"/>
          <polygon class="st12" points="561.97 471.84 546.79 494.89 531.67 471.84 516.55 471.84 516.55 517.93 529.01 517.93 529.01 487.53 544.6 512.1 549.04 512.36 564.88 488.24 564.88 517.93 577.5 517.93 577.5 471.84 561.97 471.84"/>
        </g>
        <polygon class="st16" points="626.75 598.75 200.81 598.75 200.81 589.5 634.31 589.5 626.75 598.75"/>
        <path class="st14" d="M194.52,280.3v-47.77c0-5.06,4.09-9.15,9.15-9.15h53.65s-62.79,56.91-62.79,56.91Z"/>
        <path class="st21" d="M639.73,523.44v47.77c0,5.06-4.09,9.15-9.15,9.15h-53.65l62.79-56.91Z"/>
        <path class="st3" d="M226.61,641.26v57.07h108.26v67.7h54.97v-68h41.49v68h54.1v-70.51s83.43-.97,121.54-55.64c0,0-380.37,1.38-380.37,1.38Z"/>
        <path class="st1" d="M226.61,193.04v-49.92h108.26v-74.85h54.97v75.15h41.49v-75.15h54.1v77.66s74.85-10.01,113.01,44.65c0,0-371.84,2.45-371.84,2.45Z"/>
      </g>
    </g>
  </g>
</svg>
